<?xml version="1.0" ?>
<!-- Uploaded to: SVG Repo, www.svgrepo.com, Generator: SVG Repo Mixer Tools -->
<svg fill="#000000" width="800px" height="800px" viewBox="0 0 100 100" version="1.1" xml:space="preserve" xmlns="http://www.w3.org/2000/svg" xmlns:xlink="http://www.w3.org/1999/xlink">
<g id="tree"/>
<g id="plant"/>
<g id="flower">
<path d="M77.3,91c-0.3-0.2-0.7-0.4-1.1-0.6c-0.4-0.2-0.9-0.7-1.4-1.2c-0.9-0.9-2-1.9-3.4-2.4c-1-0.3-2.1-0.2-3.1-0.1   c-0.9,0.1-1.7,0.2-2.4,0.1c-0.6-0.1-1.2-0.5-1.9-0.9c0-0.6,0.3-10.5,8.4-14.1c0.4-0.2,0.7-0.7,0.6-1.1c-0.1-0.5-0.5-0.8-1-0.8   c-0.1,0-5.7,0.1-10.7,3.1c0.4-2.9,0.4-8-2.6-11.8c-0.2-0.3-0.7-0.4-1-0.3c-0.4,0.1-0.7,0.4-0.7,0.8c0,0.1-1.6,9.4-6,14V72   c0.1-10.8,4.8-23,9.4-24.6c1.5-0.5,3,0.1,4.6,1.8c-1,1.4-3.1,5-1.1,9c2.4,4.7,9.7,7.9,10,8.1c0.1,0.1,0.3,0.1,0.4,0.1   c0.2,0,0.3,0,0.4-0.1c0.3-0.1,0.5-0.4,0.5-0.7c0.1-0.3,1.8-8-0.5-12.8c-2-4-6.2-4.5-7.9-4.6c-2.8-3.4-5.4-3.4-7.1-2.8   c-3.7,1.3-6.8,6.9-8.8,13.5V37.3c2.4,2.7,6,5.7,6.2,5.9c0.2,0.2,0.4,0.2,0.6,0.2c0.1,0,0.3,0,0.4-0.1c0.3-0.1,0.6-0.5,0.6-0.8   c0-0.3,0.5-6.4,0-10c1.2,0.2,2.6,0.2,4,0.2c3,0,5.8-0.2,6-0.3c0.4,0,0.7-0.3,0.8-0.6c0.1-0.3,0.1-0.7-0.2-1   c-0.2-0.2-4.1-4.8-7.1-7.1c3-2.3,6.9-6.9,7.1-7.1c0.2-0.3,0.3-0.7,0.2-1c-0.1-0.3-0.5-0.6-0.8-0.6c-0.3,0-6.4-0.5-10,0   c0.5-3.7,0-9.7,0-10c0-0.4-0.3-0.7-0.6-0.8S57.3,4,57,4.2c-0.2,0.2-4.8,4.1-7.1,7.1c-2.3-3-6.9-6.9-7.1-7.1c-0.3-0.2-0.7-0.3-1-0.2   c-0.3,0.1-0.6,0.5-0.6,0.8c0,0.3-0.5,6.4,0,10c-3.7-0.5-9.7,0-10,0c-0.4,0-0.7,0.3-0.8,0.6c-0.1,0.3-0.1,0.7,0.2,1   c0.2,0.2,4.1,4.8,7.1,7.1c-3,2.3-6.9,6.9-7.1,7.1c-0.2,0.3-0.3,0.7-0.2,1c0.1,0.3,0.5,0.6,0.8,0.6c0.2,0,2.8,0.2,5.6,0.2   c1.5,0,3.1-0.1,4.4-0.3c-0.5,3.7,0,9.7,0,10c0,0.4,0.3,0.7,0.6,0.8c0.1,0,0.3,0.1,0.4,0.1c0.2,0,0.5-0.1,0.6-0.2   c0.2-0.2,3.6-3.1,6-5.8V59c-1.9-6.6-5.1-12.2-8.8-13.5c-1.7-0.6-4.3-0.6-7.1,2.8c-1.7,0-5.9,0.6-7.9,4.6   c-2.4,4.7-0.6,12.4-0.5,12.8c0.1,0.3,0.3,0.5,0.5,0.7c0.1,0.1,0.3,0.1,0.4,0.1c0.1,0,0.3,0,0.4-0.1c0.3-0.1,7.6-3.4,10-8.1   c2-4-0.1-7.7-1.1-9c1.6-1.8,3.1-2.4,4.6-1.8C44.2,49,48.9,61.2,49,72v3.9c-4.4-4.6-6-13.9-6-14c-0.1-0.4-0.4-0.7-0.7-0.8   c-0.4-0.1-0.8,0-1,0.3c-3,3.8-2.9,8.9-2.6,11.8C33.7,70.1,28.1,70,28,70c-0.5,0-0.9,0.3-1,0.8c-0.1,0.5,0.1,0.9,0.6,1.1   C35.7,75.5,36,85.4,36,86c-0.7,0.4-1.3,0.8-1.9,0.9c-0.8,0.2-1.6,0-2.4-0.1c-1-0.1-2.1-0.3-3.1,0.1c-1.4,0.5-2.5,1.5-3.4,2.4   c-0.5,0.5-1,0.9-1.4,1.2c-0.4,0.2-0.7,0.4-1.1,0.6c-1.9,1.1-3.7,2.1-3.7,4c0,0.6,0.4,1,1,1h60c0.6,0,1-0.4,1-1   C81,93.1,79.2,92.1,77.3,91z M73,53.8c1.5,3,1,7.9,0.6,10.2c-2.1-1.1-6.3-3.5-7.8-6.6c-1.6-3.2,0.2-6.1,1-7.1   C67.9,50.3,71.4,50.7,73,53.8z M34.3,57.4c-1.5,3.1-5.8,5.5-7.8,6.6c-0.4-2.3-0.9-7.1,0.6-10.2c1.6-3.2,5.1-3.5,6.3-3.5   C34,51.3,35.8,54.3,34.3,57.4z M62.1,85c-0.4-0.2-0.8-0.3-1.3-0.4c-1.1-0.1-2.1,0.2-3.1,0.5c-0.6,0.2-1.1,0.3-1.6,0.4   c0.8-8.8,7.2-11.8,11.7-12.9C63.2,76.6,62.2,82.6,62.1,85z M58.4,64.7c1.9,4.4,0.6,10,0.6,10.1c0,0,0,0.1,0,0.1   c-2.5,2.3-4.5,5.5-5,10.4c-0.3-0.1-0.6-0.2-0.9-0.4c-1-0.4-2-0.9-3.2-0.9c-1.1,0-2,0.4-2.9,0.8c0.5-4.3,3.3-5.8,3.4-5.9   c0,0,0,0,0,0c0,0,0,0,0,0c0,0,0.1,0,0.1,0C55.2,75.8,57.5,68.5,58.4,64.7z M47,26.9C47,26.9,47,26.9,47,26.9   c-0.1-0.1-0.1-0.1-0.1-0.1c0,0,0-0.1-0.1-0.1c-0.4-0.4-0.7-0.8-0.9-1.3c-0.2-0.5-0.3-1-0.3-1.6c0,0,0,0,0-0.1c0,0,0-0.1,0-0.1   c0-1.1,0.4-2.1,1.2-2.9c0,0,0,0,0-0.1c0,0,0,0,0.1-0.1l0,0c0,0,0.1,0,0.1-0.1c0.4-0.4,0.8-0.7,1.3-0.9s1-0.3,1.6-0.3c0,0,0,0,0.1,0   c0,0,0.1,0,0.1,0c1.1,0,2.1,0.4,2.9,1.2c0,0,0,0,0,0c0,0,0,0.1,0.1,0.1c0,0,0,0.1,0.1,0.1c0.4,0.4,0.7,0.8,0.9,1.3   c0.2,0.5,0.3,1,0.3,1.6c0,0,0,0,0,0.1c0,0,0,0.1,0,0.1c0,1.1-0.4,2.1-1.2,2.9c0,0,0,0.1-0.1,0.1c0,0,0,0,0,0c0,0-0.1,0-0.1,0.1   c-0.4,0.4-0.8,0.7-1.3,0.9c-0.5,0.2-1,0.3-1.6,0.3c0,0,0,0-0.1,0c0,0-0.1,0-0.1,0C48.8,28.1,47.8,27.7,47,26.9z M57,40.3   c-2.1-1.9-5.2-4.8-6-6.5c0-0.1,0-0.1-0.1-0.2c-0.1-0.3-0.2-0.7-0.3-1c0-0.1,0-0.2-0.1-0.3c0-0.2-0.1-0.5-0.1-0.7c0-0.1,0-0.2,0-0.4   c0-0.2,0-0.4,0.1-0.6c0-0.1,0-0.2,0.1-0.3c0-0.1,0.1-0.1,0.1-0.2c0.6-0.1,1.3-0.2,1.9-0.5c0.6-0.3,1.2-0.6,1.7-1c0,0,0,0,0.1,0   c0.2,0.1,0.4,0.2,0.6,0.4c0,0,0,0,0,0c0.2,0.2,0.4,0.3,0.6,0.5c0,0,0.1,0.1,0.1,0.1c0.2,0.2,0.3,0.4,0.5,0.6c0,0,0.1,0.1,0.1,0.1   c0.1,0.2,0.3,0.5,0.4,0.8c0,0,0,0.1,0.1,0.1c0,0,0,0,0,0.1C57.1,33.3,57.1,37.5,57,40.3z M66.6,30.5c-2.6,0.1-6.4,0.2-8.4-0.2   c0,0-0.1-0.1-0.1-0.1c-0.1-0.3-0.2-0.5-0.4-0.7c0-0.1-0.1-0.1-0.1-0.2c-0.2-0.3-0.4-0.5-0.6-0.8c0,0-0.1-0.1-0.1-0.1   c-0.2-0.2-0.4-0.4-0.6-0.6c-0.1-0.1-0.1-0.1-0.2-0.2c-0.2-0.2-0.5-0.4-0.7-0.6c0,0,0,0,0,0c0.3-0.6,0.6-1.2,0.7-1.8c0,0,0,0,0,0   c0.3,0.1,0.6,0.1,0.9,0.1c0.1,0,0.2,0,0.2,0c0.1,0,0.2,0,0.3,0c0.2,0,0.4,0,0.6,0c0,0,0.1,0,0.1,0c0.3,0,0.6-0.1,1-0.2   c0.1,0,0.2,0,0.2-0.1c0.3-0.1,0.5-0.2,0.8-0.2c0.1,0,0.1,0,0.2,0C62.2,25.9,64.9,28.6,66.6,30.5z M66.6,16.8   c-1.9,2.1-4.8,5.2-6.5,6c-0.1,0-0.1,0.1-0.2,0.1c-0.3,0.1-0.7,0.2-1,0.3c-0.1,0-0.2,0-0.3,0.1c-0.2,0-0.5,0.1-0.7,0.1   c-0.1,0-0.2,0-0.4,0c-0.2,0-0.4,0-0.6-0.1c-0.1,0-0.2,0-0.3-0.1c-0.1,0-0.1-0.1-0.2-0.1c-0.1-0.6-0.2-1.3-0.5-1.9   c-0.3-0.6-0.6-1.2-1-1.7c0,0,0-0.1,0-0.1c0.1-0.2,0.2-0.4,0.4-0.6c0,0,0,0,0,0c0.2-0.2,0.3-0.4,0.5-0.6c0,0,0.1-0.1,0.1-0.1   c0.2-0.2,0.4-0.3,0.6-0.5c0,0,0.1-0.1,0.1-0.1c0.2-0.1,0.5-0.3,0.8-0.4c0,0,0.1,0,0.1,0c0,0,0,0,0.1,0   C59.5,16.6,63.7,16.6,66.6,16.8z M56.8,7.1c0.1,2.6,0.2,6.4-0.2,8.4c0,0-0.1,0-0.1,0.1c-0.3,0.1-0.5,0.3-0.7,0.4   c-0.1,0-0.1,0.1-0.2,0.1c-0.3,0.2-0.5,0.4-0.8,0.6c0,0-0.1,0.1-0.1,0.1c-0.2,0.2-0.4,0.4-0.6,0.6c-0.1,0.1-0.1,0.1-0.2,0.2   c-0.2,0.2-0.4,0.5-0.6,0.7c0,0,0,0,0,0c-0.6-0.3-1.2-0.6-1.8-0.7c0,0,0,0,0,0c0.1-0.3,0.1-0.6,0.1-0.9c0-0.1,0-0.2,0-0.2   c0-0.3,0-0.5,0-0.8c0,0,0-0.1,0-0.1c0-0.3-0.1-0.6-0.2-1c0-0.1,0-0.2-0.1-0.2c-0.1-0.3-0.2-0.5-0.2-0.8c0,0,0-0.1,0-0.1   C52.1,11.5,54.9,8.9,56.8,7.1z M43,7.1c2.1,1.9,5.2,4.8,6,6.5c0,0.1,0,0.1,0.1,0.2c0.1,0.3,0.2,0.7,0.3,1c0,0.1,0,0.2,0.1,0.3   c0,0.2,0.1,0.5,0.1,0.7c0,0.1,0,0.2,0,0.4c0,0.2,0,0.4-0.1,0.6c0,0.1,0,0.2-0.1,0.3c0,0.1-0.1,0.1-0.1,0.2   c-0.6,0.1-1.3,0.2-1.9,0.5c-0.6,0.3-1.2,0.6-1.7,1c0,0,0,0-0.1,0c-0.2-0.1-0.4-0.2-0.6-0.4c0,0,0,0,0,0c-0.2-0.2-0.4-0.3-0.6-0.5   c0,0-0.1-0.1-0.1-0.1c-0.2-0.2-0.3-0.4-0.5-0.6c0,0,0-0.1-0.1-0.1c-0.1-0.2-0.3-0.5-0.4-0.8c0,0,0-0.1-0.1-0.1c0,0,0,0,0-0.1   C42.9,14.2,42.9,10,43,7.1z M33.4,16.9c2.6-0.1,6.4-0.2,8.4,0.2c0,0,0.1,0.1,0.1,0.1c0.1,0.3,0.2,0.5,0.4,0.7   c0,0.1,0.1,0.1,0.1,0.2c0.2,0.3,0.4,0.5,0.6,0.8c0,0,0.1,0.1,0.1,0.1c0.2,0.2,0.4,0.4,0.6,0.6c0.1,0.1,0.1,0.1,0.2,0.2   c0.2,0.2,0.5,0.4,0.7,0.5c0,0,0,0,0,0c-0.3,0.6-0.6,1.2-0.7,1.8c0,0,0,0,0,0c-0.3-0.1-0.6-0.1-0.9-0.1c-0.1,0-0.1,0-0.2,0   c-0.3,0-0.6,0-0.9,0c0,0-0.1,0-0.1,0c-0.3,0-0.7,0.1-1,0.2c-0.1,0-0.1,0-0.2,0.1c-0.3,0.1-0.5,0.2-0.8,0.3c0,0-0.1,0-0.1,0   C37.8,21.6,35.1,18.9,33.4,16.9z M33.4,30.7c1.9-2.1,4.8-5.2,6.5-6c0.1,0,0.1-0.1,0.2-0.1c0.3-0.1,0.7-0.2,1-0.3   c0.1,0,0.2,0,0.3-0.1c0.2,0,0.4-0.1,0.7-0.1c0.1,0,0.2,0,0.4,0c0.2,0,0.4,0,0.6,0.1c0.1,0,0.2,0,0.3,0.1c0.1,0,0.1,0.1,0.2,0.1   c0.1,0.6,0.2,1.3,0.5,1.9c0.3,0.6,0.6,1.2,1,1.7c0,0,0,0,0,0.1c-0.1,0.2-0.2,0.4-0.4,0.6c0,0,0,0,0,0c-0.2,0.2-0.3,0.4-0.5,0.6   c0,0-0.1,0.1-0.1,0.1c-0.2,0.2-0.4,0.3-0.6,0.5c0,0-0.1,0-0.1,0.1c-0.2,0.1-0.5,0.3-0.8,0.4c0,0,0,0,0,0c0,0-0.1,0-0.1,0   c0,0,0,0-0.1,0C40.5,30.9,36.3,30.8,33.4,30.7z M43.2,40.4C43,37.7,43,33.9,43.4,32c0,0,0.1-0.1,0.1-0.1c0.3-0.1,0.5-0.2,0.7-0.4   c0.1,0,0.1-0.1,0.2-0.1c0.3-0.2,0.5-0.4,0.8-0.6c0,0,0.1-0.1,0.1-0.1c0.2-0.2,0.4-0.4,0.6-0.6c0.1-0.1,0.1-0.1,0.2-0.2   c0.2-0.2,0.4-0.5,0.5-0.7c0,0,0,0,0,0c0.6,0.3,1.2,0.6,1.8,0.7c0,0,0,0,0,0c-0.1,0.3-0.1,0.6-0.1,0.9c0,0.1,0,0.2,0,0.3   c0,0.3,0,0.5,0,0.8c0,0.1,0,0.1,0,0.2c0,0.3,0.1,0.6,0.2,1c0,0.1,0,0.2,0.1,0.2c0.1,0.3,0.2,0.5,0.3,0.8c0,0,0,0.1,0,0.1   C47.9,35.9,45.1,38.6,43.2,40.4z M41,74.8c0-0.1-1.4-5.6,0.6-10.1c0.9,3.5,2.9,9.9,6.8,13.3c-0.9,0.8-2.2,2.3-2.9,4.6   c-0.8-3.4-2.5-5.9-4.5-7.7C41,74.8,41,74.8,41,74.8z M32.3,72.6c4.4,1.1,10.8,4.1,11.7,12.9c-0.5-0.1-1-0.2-1.6-0.4   c-1-0.3-2-0.6-3.1-0.5c-0.5,0.1-0.9,0.2-1.3,0.3C37.8,82.6,36.8,76.6,32.3,72.6z M21.7,94c0.5-0.4,1.3-0.8,2-1.3   c0.4-0.2,0.7-0.4,1.1-0.6c0.6-0.4,1.2-0.9,1.7-1.5c0.8-0.8,1.6-1.6,2.6-1.9c0.6-0.2,1.4-0.1,2.2,0c0.9,0.1,2,0.3,3.1,0   c0.9-0.2,1.8-0.7,2.6-1.2c0.8-0.5,1.6-1,2.4-1.1c0.7-0.1,1.4,0.2,2.3,0.4c1,0.3,2,0.6,3,0.5c1-0.1,1.9-0.5,2.8-0.8   c0.9-0.4,1.7-0.7,2.4-0.7s1.5,0.3,2.4,0.7c0.9,0.4,1.8,0.8,2.8,0.8c1.1,0.1,2.1-0.2,3-0.5c0.8-0.3,1.6-0.5,2.3-0.4   c0.8,0.1,1.6,0.6,2.4,1.1c0.8,0.5,1.7,1,2.6,1.2c1.1,0.2,2.1,0.1,3.1,0c0.8-0.1,1.7-0.2,2.2,0c1,0.3,1.8,1.1,2.6,1.9   c0.6,0.6,1.1,1.1,1.7,1.5c0.4,0.2,0.7,0.4,1.1,0.6c0.8,0.4,1.5,0.8,2,1.3H21.7z"/>
</g>
<g id="flower_pot"/>
<g id="rose"/>
<g id="garden"/>
<g id="fance"/>
<g id="floral"/>
<g id="sunflower"/>
<g id="sprinkle"/>
<g id="water_hose"/>
<g id="planting"/>
<g id="fertilizer"/>
<g id="bee"/>
<g id="butterfly"/>
<g id="shovel"/>
<g id="ladybug"/>
<g id="watering"/>
<g id="hanging_pot"/>
<g id="green_house"/>
</svg>